<?xml version="1.0" encoding="UTF-8"?>
<svg width="91px" height="100px" viewBox="0 0 91 100" version="1.1" xmlns="http://www.w3.org/2000/svg" xmlns:xlink="http://www.w3.org/1999/xlink">
  <title>Group 14</title>
  <desc>Created with Sketch.</desc>
  <defs>
    <polygon id="path-1" points="0.499453043 0.125165079 8.22114783 0.125165079 8.22114783 7.76984127 0.499453043 7.76984127"></polygon>
  </defs>
  <g id="Mobile" stroke="none" stroke-width="1" fill="none" fill-rule="evenodd">
    <g id="Tablet" transform="translate(-26.000000, -27.000000)">
      <g id="Top-Header" transform="translate(-336.000000, 0.000000)">
        <g id="Group-14" transform="translate(362.000000, 27.000000)">
          <polygon id="Fill-1" fill="#EC1B2F" points="0 91 91 91 91 0 0 0"></polygon>
          <g id="Group-13" transform="translate(10.000000, 11.000000)">
            <g id="Group-4" transform="translate(72.547826, 81.230159)">
              <mask id="mask-2" fill="white">
                <use xlink:href="#path-1"></use>
              </mask>
              <g id="Clip-3"></g>
              <path d="M1.26578348,3.93168095 C1.26578348,2.12130794 2.62447043,0.755228571 4.36984435,0.755228571 C6.09549652,0.755228571 7.45629652,2.12130794 7.45629652,3.93168095 C7.45629652,5.77525238 6.09549652,7.1335619 4.36984435,7.1335619 C2.62447043,7.1335619 1.26578348,5.77525238 1.26578348,3.93168095 L1.26578348,3.93168095 Z M4.36984435,7.76998254 C6.44978348,7.76998254 8.22121826,6.14961746 8.22121826,3.93168095 C8.22121826,1.73917302 6.44978348,0.125165079 4.36984435,0.125165079 C2.27300087,0.125165079 0.499453043,1.73917302 0.499453043,3.93168095 C0.499453043,6.14961746 2.27300087,7.76998254 4.36984435,7.76998254 L4.36984435,7.76998254 Z M3.5605487,4.23470476 L4.32899217,4.23470476 L5.49187043,6.14961746 L6.23777478,6.14961746 L4.98544435,4.2022127 C5.63203565,4.12239524 6.12578348,3.77981587 6.12578348,2.99153016 C6.12578348,2.12130794 5.61442696,1.73917302 4.57269652,1.73917302 L2.89705304,1.73917302 L2.89705304,6.14961746 L3.5605487,6.14961746 L3.5605487,4.23470476 Z M3.5605487,3.66891905 L3.5605487,2.30495873 L4.47127043,2.30495873 C4.93614,2.30495873 5.43129652,2.40172857 5.43129652,2.94914921 C5.43129652,3.62795079 4.92627913,3.66891905 4.35998348,3.66891905 L3.5605487,3.66891905 Z" id="Fill-2" fill="#EC1B2F" mask="url(#mask-2)"></path>
            </g>
            <path d="M66.0017583,29.4498881 C63.2484626,15.4549913 50.872367,4.89577698 36.0162626,4.89577698 C19.1400887,4.89577698 5.45883652,18.5240786 5.45883652,35.3366024 C5.45883652,52.1498325 19.1400887,65.7774278 36.0162626,65.7774278 C45.3284452,65.7774278 53.6672191,61.6276262 59.2710104,55.0840071 L64.273993,55.2281024 C57.935567,64.1514119 47.4943148,69.9809119 35.6859235,69.9809119 C16.3579148,69.9809119 0.690401739,54.3698881 0.690401739,35.1169278 C0.690401739,15.8632611 16.3579148,0.254356349 35.6859235,0.254356349 C53.0727496,0.254356349 67.4963843,12.8838802 70.2186887,29.4385865 L66.0017583,29.4498881 Z" id="Fill-5" fill="#FEFEFE"></path>
            <path d="M22.0398887,25.05795 L17.3552713,25.05795 L21.8011148,18.0898151 L21.8701409,18.0898151 L22.0398887,25.05795 Z M15.9515061,33.6344421 L16.5980974,31.1495056 C15.0922017,31.1495056 14.5294278,31.138204 14.5294278,30.48695 C14.5294278,29.9578944 16.5149843,27.0865849 16.5149843,27.0865849 L22.635767,27.0865849 L23.1295148,30.9001643 L20.6509148,31.2314421 L20.0557409,33.6344421 L30.1286191,33.6344421 L30.642793,31.6630214 L29.2397322,31.4433468 L26.5209496,11.4119897 L23.0478104,11.4119897 L12.0874539,28.646204 C11.230967,29.9211643 10.2054365,31.3515214 8.4966887,31.6630214 L7.87968,33.6344421 L15.9515061,33.6344421 Z" id="Fill-7" fill="#FEFEFE"></path>
            <path d="M37.2576757,31.610681 L32.5723539,31.610681 L37.017493,24.6411333 L37.0872235,24.6411333 L37.2576757,31.610681 Z M31.169293,40.1857603 L31.8137713,37.7022365 C30.3099887,37.7022365 29.7472148,37.6902286 29.7472148,37.039681 C29.7472148,36.509919 31.732067,33.6379032 31.732067,33.6379032 L37.8493278,33.6379032 L38.3473017,37.4528952 L35.86518,37.784173 L35.2735278,40.1857603 L46.2853017,40.1066492 L47.029093,37.618181 L44.6307887,37.7022365 L41.6549191,17.7980222 L38.4290061,17.714673 L27.3024235,35.1989349 C26.4494583,36.4731889 25.4225191,37.9028397 23.713067,38.215046 L23.0960583,40.1857603 L31.169293,40.1857603 Z" id="Fill-9" fill="#FEFEFE"></path>
            <path d="M42.7297539,31.231654 L54.8022757,31.1497175 L56.3750843,42.5939873 L56.8716496,42.5113444 L65.1413974,31.1497175 L73.6604843,31.1497175 L73.3280322,33.8034714 L70.59798,33.8034714 C70.59798,33.8034714 66.0514148,50.6393048 66.5465713,50.8851143 C67.0431365,51.137281 68.9441713,50.9698762 68.9441713,50.9698762 L68.5307191,53.4583444 L56.7885365,53.4583444 L57.2843974,50.9698762 C57.2843974,50.9698762 59.3523626,51.0546381 60.0137452,50.7219476 C60.6744235,50.3899635 62.4113452,39.8590032 62.4113452,39.8590032 L53.8105539,53.3757016 L51.6608843,53.540281 L49.4295104,39.1936222 L47.5263626,47.7369159 C47.2854757,48.422781 47.029093,49.5296302 47.029093,50.0593921 C47.029093,51.3689635 48.0158843,50.8462651 49.179467,50.9698762 L48.8491278,53.4583444 L39.9187017,53.4583444 L40.4138583,51.0546381 C43.1417974,51.0546381 43.448893,50.2628206 43.8954496,49.0147016 L47.3594322,33.6374794 L43.0129017,33.5124556 L42.7297539,31.231654 Z" id="Fill-11" fill="#FEFEFE"></path>
          </g>
        </g>
      </g>
    </g>
  </g>
</svg>