<?xml version="1.0" encoding="UTF-8" standalone="no"?>
<!-- Created with Inkscape (http://www.inkscape.org/) -->

<svg
   width="85.999992mm"
   height="86.000031mm"
   viewBox="0 0 85.999992 86.000031"
   version="1.1"
   id="svg1"
   xml:space="preserve"
   xmlns:xlink="http://www.w3.org/1999/xlink"
   xmlns="http://www.w3.org/2000/svg"
   xmlns:svg="http://www.w3.org/2000/svg"><defs
     id="defs1"><linearGradient
       id="linearGradient1"><stop
         style="stop-color:#1b3986;stop-opacity:1;"
         offset="0"
         id="stop1" /><stop
         style="stop-color:#227cba;stop-opacity:1;"
         offset="1"
         id="stop2" /></linearGradient><linearGradient
       xlink:href="#linearGradient1"
       id="linearGradient2"
       x1="142.13486"
       y1="272.53912"
       x2="142.62985"
       y2="184.16913"
       gradientUnits="userSpaceOnUse"
       gradientTransform="matrix(0.98914371,0,0,0.9775249,-75.13573,-62.597084)" /></defs><g
     id="layer1"
     transform="translate(-23.650987,-117.6247)"><path
       style="fill:url(#linearGradient2);stroke-width:0.983317"
       d="m 55.892635,198.46083 c -5.512084,-2.82431 -11.047263,-5.79281 -12.300409,-6.59669 -10.834623,-6.95026 -17.8141,-17.27052 -19.694611,-29.12156 -0.512033,-3.22686 -0.187918,-10.57842 0.613873,-13.92376 2.355091,-9.82633 8.12996,-17.84576 17.15539,-23.82338 14.81043,-9.80905 35.049258,-9.82947 49.812257,-0.0502 9.169245,6.07383 15.221855,14.6866 17.528465,24.94272 0.79881,3.55181 0.86578,10.72164 0.13365,14.30664 -5.11895,22.01741 -23.573999,31.41941 -43.029071,39.43013 -0.108668,-0.0158 -4.707464,-2.33956 -10.219544,-5.16385 z m 10.481904,-28.27989 c 0.322787,-0.0645 1.705709,-0.18203 3.073151,-0.26119 5.901845,-0.34166 10.762497,-2.42025 15.099012,-6.4569 10.621365,-9.88691 9.072436,-26.02577 -3.29012,-34.28098 -7.615546,-5.08535 -17.925005,-5.74568 -26.627638,-1.7055 -3.175726,1.47432 -5.297498,2.93256 -7.704461,5.29505 -3.355165,3.29317 -5.574032,7.05305 -6.697294,11.34856 -0.583842,2.2327 -0.642162,2.88243 -0.538154,5.99565 0.0642,1.92038 0.203586,3.69528 0.30984,3.94422 0.178431,0.41802 0.851197,0.45261 8.801658,0.45261 h 8.608457 v 18.96713 18.96712 l 3.689348,4.76281 c 2.029149,2.61954 3.884011,4.97872 4.12194,5.24261 0.402967,0.44695 0.437221,-0.63778 0.499982,-15.83706 L 65.78762,170.2982 Z M 65.783733,156.1936 v -6.07797 H 53.203983 40.624221 l 0.182952,-0.58193 c 0.100626,-0.32006 0.653349,-1.51302 1.228289,-2.65102 4.695812,-9.29472 13.321175,-14.59783 22.807388,-14.02259 7.272887,0.44102 13.617294,5.09068 15.509299,11.36637 0.557847,1.85035 0.545503,5.3677 -0.02562,7.29816 -1.822567,6.16044 -7.597514,10.74695 -13.531674,10.74695 h -1.011123 z"
       id="path1" /></g></svg>
